<svg class="svg-icon" style="width: 1em;height: 1em;vertical-align: middle;fill: currentColor;overflow: hidden;" viewBox="0 0 1024 1024" version="1.1" xmlns="http://www.w3.org/2000/svg"><path d="M750.4896 880.4864H154.0608c-55.9616 0-101.2736-45.3632-101.2736-101.2736V232.96c0-55.9616 45.3632-101.2736 101.2736-101.2736h73.9328c20.6848 0 40.9088 6.3488 57.9072 18.176l77.5168 54.016c16.9984 11.8272 37.1712 18.176 57.9072 18.176h329.1648c55.9616 0 101.2736 45.3632 101.2736 101.2736v455.8848c0 55.9616-45.312 101.2736-101.2736 101.2736z" fill="#80B7F9" /><path d="M295.0656 342.6816h631.4496c34.048 0 58.2656 33.5872 48.0256 66.5088l-136.96 440.6272c-6.6048 21.2992-26.0608 35.7376-48.0256 35.7376H138.2912c-33.9968 0-58.2656-33.536-48.0768-66.4576l136.2944-420.1472c13.5168-39.4752 46.5408-56.2688 68.5568-56.2688z" fill="#80B7F9" /><path d="M851.7632 779.2128V342.6816H295.0656c-22.016 0-55.04 16.7936-68.5568 56.32l-136.2944 420.1472c-4.7616 15.4112-1.9456 30.8736 5.8368 43.0592 16.4352 11.52 36.4032 18.3296 58.0096 18.3296h596.4288c55.9616-0.0512 101.2736-45.3632 101.2736-101.3248z" fill="#3E8BF8" /><path d="M631.0912 575.6416h-69.2736V506.3168c0-22.6304-18.3296-40.96-40.96-40.96s-40.96 18.3296-40.96 40.96v69.2736H410.5728c-22.6304 0-40.96 18.3296-40.96 40.96s18.3296 40.96 40.96 40.96h69.2736v69.2736c0 22.6304 18.3296 40.96 40.96 40.96s40.96-18.3296 40.96-40.96v-69.2736h69.2736c22.6304 0 40.96-18.3296 40.96-40.96s-18.2784-40.9088-40.9088-40.9088z" fill="#FFFFFF" /></svg>